<?xml version="1.0" encoding="iso-8859-1"?>
<!-- Generator: Adobe Illustrator 17.1.0, SVG Export Plug-In . SVG Version: 6.00 Build 0)  -->
<!DOCTYPE svg PUBLIC "-//W3C//DTD SVG 1.1//EN" "http://www.w3.org/Graphics/SVG/1.1/DTD/svg11.dtd">
<svg version="1.1" id="Capa_1" xmlns="http://www.w3.org/2000/svg" xmlns:xlink="http://www.w3.org/1999/xlink" x="0px" y="0px"
	 viewBox="0 0 280.858 280.858" style="enable-background:new 0 0 280.858 280.858;" xml:space="preserve">
<path d="M127.178,247.104c0,13.669-11.081,24.75-24.75,24.75s-24.75-11.081-24.75-24.75s11.081-24.75,24.75-24.75
	S127.178,233.436,127.178,247.104z M176.867,48.3c2.023,6.303,3.546,12.7,4.558,19.138l24.944,7.404
	c8.736,2.593,13.716,11.777,11.123,20.513l0,0L182.94,85.099c0.298,19.01-6.2,48.255-12.66,68.018l-16.399,44.726
	c15.819,12.446,27.682,29.233,34.196,48.771l4.832,14.498c2.619,7.859-1.628,16.354-9.487,18.974
	c-1.573,0.524-3.173,0.773-4.745,0.773c-6.281,0-12.134-3.976-14.229-10.261l-4.832-14.498
	c-6.257-18.771-19.449-33.98-37.146-42.828c-17.696-8.85-37.781-10.277-56.55-4.02l-14.499,4.833
	c-7.858,2.619-16.354-1.628-18.974-9.487c-2.619-7.859,1.628-16.354,9.487-18.974l14.499-4.833
	c18.598-6.199,38.114-7.022,56.727-2.611l14.137-38.557l-4.066-20.127c-1.24-6.145-3.089-12.188-5.496-17.979L99.646,69.783
	c-1.784-3.13-2.315-6.632-1.757-9.927L35.585,41.363c-4.368-1.297-6.858-5.888-5.562-10.257c1.296-4.368,5.888-6.858,10.256-5.562
	l108.07,32.076c-0.134-0.421-0.259-0.843-0.399-1.263c-1.889-5.651-0.211-11.623,3.797-15.514L68.585,16.161
	c-4.368-1.296-6.858-5.888-5.562-10.256l0,0c1.296-4.368,5.888-6.858,10.256-5.562L239.369,49.64
	c8.736,2.593,13.716,11.777,11.123,20.513L176.867,48.3z M152.311,76.008l-17.555-5.21l9.487,16.642
	c0.286,0.502,0.543,1.02,0.769,1.55c2.41,5.656,4.41,11.505,5.976,17.459C153.038,96.466,153.486,86.196,152.311,76.008z"/>
<g>
</g>
<g>
</g>
<g>
</g>
<g>
</g>
<g>
</g>
<g>
</g>
<g>
</g>
<g>
</g>
<g>
</g>
<g>
</g>
<g>
</g>
<g>
</g>
<g>
</g>
<g>
</g>
<g>
</g>
</svg>
