<?xml version="1.0" encoding="iso-8859-1"?>
<!-- Generator: Adobe Illustrator 18.1.1, SVG Export Plug-In . SVG Version: 6.00 Build 0)  -->
<svg version="1.1" id="Capa_1" xmlns="http://www.w3.org/2000/svg" xmlns:xlink="http://www.w3.org/1999/xlink" x="0px" y="0px"
	 viewBox="0 0 26.85 26.85" style="enable-background:new 0 0 26.85 26.85;" xml:space="preserve">
<g>
	<path style="fill:#010002;" d="M11.524,8.859c0.143-0.015,0.291-0.022,0.443-0.022c0.528,0,1.08,0.092,1.619,0.266h2.513
		l0.975,0.974c0.15-0.124,0.308-0.24,0.471-0.346l-0.629-0.628h1.639V8.524h-1.687l1.698-1.697l-0.409-0.409L16.05,8.524h-2.96
		l-0.938-1.623l2.092-2.093h2.979V4.23h-2.4l1.406-1.406L15.82,2.416l-1.439,1.44V1.455h-0.578v2.979l-1.947,1.949l-0.371-0.641
		h-1.454V2.806l2.105-2.104l-0.407-0.409l-1.698,1.696V0H9.453v2.037L7.755,0.339L7.347,0.747l2.106,2.107v2.888H7.855L7.576,6.227
		L5.4,4.05V1.071H4.822l0.001,2.401L3.766,2.416L3.358,2.824l1.089,1.09H2.046v0.578h2.979l2.252,2.252l-1.028,1.78h-3.01
		L1.134,6.418L0.726,6.827l1.697,1.697H0.93v0.578h1.542L0.773,10.8l0.409,0.407l2.105-2.104h2.877l1.088,1.881l-2.218,2.218H2.055
		v0.578h2.402l-1.099,1.099l0.407,0.41l1.133-1.133v2.399h0.578v-2.979l1.627-1.626c0.142-0.481,0.357-0.915,0.647-1.296
		C8.528,9.634,9.761,9.049,11.524,8.859z M11.88,7.173l0.78,1.352h-2.131L11.88,7.173z M10.031,6.114h1.238l0.312,0.541l-1.55,1.55
		V6.114z M8.069,6.114h1.384v1.988L7.849,6.498L8.069,6.114z M7.55,7.016l1.507,1.509H6.68L7.55,7.016z M6.596,9.103h2.539
		l-1.61,1.607L6.596,9.103z M25.275,11.404c-0.779-1.021-2.013-1.607-3.774-1.797c-0.143-0.015-0.291-0.021-0.443-0.021
		c-1.526,0-3.253,0.738-4.262,2.136c-1.008-1.397-2.734-2.136-4.259-2.136c-0.152,0-0.301,0.007-0.442,0.021
		c-1.762,0.189-2.998,0.775-3.774,1.797C7.55,12.414,7.3,13.798,7.58,15.515c0.684,4.168,8.402,10.86,8.73,11.143
		c0.149,0.129,0.334,0.192,0.52,0.192s0.372-0.064,0.52-0.194c0.327-0.283,7.98-6.974,8.661-11.144
		C26.293,13.798,26.045,12.415,25.275,11.404z M24.912,16.16c0,0-0.299-4.475-4.276-5.071C20.636,11.089,25.408,10.393,24.912,16.16
		z"/>
</g>
<g>
</g>
<g>
</g>
<g>
</g>
<g>
</g>
<g>
</g>
<g>
</g>
<g>
</g>
<g>
</g>
<g>
</g>
<g>
</g>
<g>
</g>
<g>
</g>
<g>
</g>
<g>
</g>
<g>
</g>
</svg>
